<svg width="24" height="24" viewBox="0 0 24 24" fill="none" xmlns="http://www.w3.org/2000/svg">
<path fill-rule="evenodd" clip-rule="evenodd" d="M20.0953 12C20.0934 12.3504 20.0677 12.7003 20.0185 13.0472L22.3008 14.8341C22.4002 14.9161 22.4672 15.0309 22.4898 15.1578C22.5124 15.2847 22.4891 15.4155 22.4241 15.5269L20.265 19.2544C20.1994 19.3647 20.097 19.4484 19.9757 19.4907C19.8545 19.5329 19.7222 19.5311 19.6022 19.4855L16.9186 18.4073C16.3598 18.8377 15.7483 19.1948 15.0989 19.47L14.6977 22.3191C14.6752 22.4467 14.6091 22.5625 14.5107 22.6468C14.4123 22.7311 14.2877 22.7786 14.1582 22.7812H9.84003C9.71283 22.7788 9.59023 22.7333 9.49224 22.6521C9.39425 22.571 9.32666 22.459 9.3005 22.3345L8.89925 19.4855C8.24809 19.2134 7.63613 18.8557 7.07956 18.4219L4.39597 19.5C4.27601 19.5457 4.14379 19.5476 4.02256 19.5054C3.90133 19.4632 3.79886 19.3796 3.73315 19.2694L1.57409 15.5423C1.5091 15.431 1.48582 15.3002 1.5084 15.1733C1.53099 15.0464 1.59797 14.9316 1.69737 14.8495L3.97972 13.0627C3.93103 12.7105 3.90535 12.3555 3.90284 12C3.90479 11.6496 3.93047 11.2997 3.97972 10.9528L1.69737 9.16594C1.59797 9.08386 1.53099 8.96911 1.5084 8.84219C1.48582 8.71527 1.5091 8.58446 1.57409 8.47312L3.73315 4.74563C3.79879 4.63528 3.90123 4.55161 4.02246 4.50934C4.1437 4.46707 4.27595 4.46891 4.39597 4.51453L7.07956 5.59266C7.63837 5.16235 8.24988 4.80524 8.89925 4.53L9.3005 1.68094C9.32295 1.55332 9.38903 1.43746 9.48744 1.35316C9.58585 1.26886 9.71048 1.22135 9.84003 1.21875H14.1582C14.2853 1.22123 14.4079 1.26675 14.5059 1.34788C14.6039 1.42901 14.6715 1.54097 14.6977 1.66547L15.0989 4.51453C15.7509 4.78639 16.3637 5.14408 16.921 5.57812L19.6022 4.5C19.7222 4.45434 19.8544 4.45243 19.9756 4.49461C20.0968 4.53679 20.1993 4.62036 20.265 4.73062L22.4241 8.45813C22.4891 8.56946 22.5124 8.70027 22.4898 8.82719C22.4672 8.95411 22.4002 9.06886 22.3008 9.15094L20.0185 10.9378C20.0671 11.2898 20.0928 11.6446 20.0953 12ZM12 7.69231C11.2415 7.69231 10.5558 7.97654 10.0685 8.49308C9.57692 9.015 9.33615 9.72423 9.39269 10.4904C9.50423 12 10.6758 13.2308 12 13.2308C13.3242 13.2308 14.4935 12 14.6073 10.4908C14.6642 9.73077 14.4231 9.02385 13.9273 8.49769C13.4381 7.97846 12.7585 7.69231 12 7.69231ZM9.36929 18.2373C10.2017 18.589 11.0963 18.7698 12 18.7692C12.9037 18.7699 13.7983 18.5891 14.6308 18.2375C15.4632 17.8858 16.2166 17.3706 16.8462 16.7223C16.4852 16.2079 16.0254 15.7707 15.4935 15.4362C14.5142 14.8077 13.2735 14.4615 12 14.4615C10.7265 14.4615 9.48577 14.8077 8.50538 15.4362C7.97391 15.7708 7.51445 16.2081 7.15385 16.7223C7.78346 17.3705 8.53684 17.8857 9.36929 18.2373Z" fill="#141414"/>
</svg>
